<?xml version="1.0" standalone="no"?>
<!DOCTYPE svg PUBLIC "-//W3C//DTD SVG 20010904//EN"
 "http://www.w3.org/TR/2001/REC-SVG-20010904/DTD/svg10.dtd">
<svg version="1.0" xmlns="http://www.w3.org/2000/svg"
 width="150.000000pt" height="150.000000pt" viewBox="0 0 150.000000 150.000000"
 preserveAspectRatio="xMidYMid meet">
<metadata>
Created by potrace 1.11, written by Peter Selinger 2001-2013
</metadata>
<g transform="translate(0.000000,150.000000) scale(0.100000,-0.100000)"
fill="#000000" stroke="none">
<path d="M572 1440 c-230 -60 -422 -242 -502 -476 -47 -136 -47 -315 1 -459
66 -197 251 -384 449 -451 271 -91 548 -26 750 176 99 98 158 200 190 326 27
105 27 263 0 368 -63 246 -270 453 -516 516 -103 27 -270 26 -372 0z m384 -65
c106 -33 194 -87 273 -166 128 -128 192 -279 195 -459 1 -127 -12 -186 -70
-308 -113 -235 -367 -384 -629 -369 -344 20 -612 288 -632 632 -15 262 134
516 369 629 51 24 118 49 148 55 30 6 64 13 75 15 47 11 196 -5 271 -29z"/>
<path d="M380 740 l0 -352 163 4 c137 3 169 7 208 25 26 11 50 26 54 32 4 8
13 0 25 -21 l17 -33 158 -3 c137 -2 157 -1 152 13 -4 8 -56 87 -117 176 -62
89 -114 167 -116 174 -3 7 45 82 105 167 61 86 111 158 111 162 0 3 -67 6
-150 6 l-149 0 -16 -30 c-16 -31 -29 -37 -40 -20 -19 31 -83 43 -242 48 l-163
4 0 -352z"/>
</g>
</svg>
